<?xml version="1.0" standalone="no"?><!DOCTYPE svg PUBLIC "-//W3C//DTD SVG 1.1//EN" "http://www.w3.org/Graphics/SVG/1.1/DTD/svg11.dtd"><svg t="1664551461130" class="icon" viewBox="0 0 1024 1024" version="1.1" xmlns="http://www.w3.org/2000/svg" p-id="8078" xmlns:xlink="http://www.w3.org/1999/xlink" width="200" height="200"><path d="M922.4 250.4A81.44 81.44 0 0 0 880 221.12a288 288 0 0 0 30.24-43.84 30.56 30.56 0 0 0-3.2-26.24 45.28 45.28 0 0 0-35.52-17.28h-3.2c-24.96 0-64 49.28-68.48 56.8a28.8 28.8 0 0 0 2.24 30.72l1.6 2.08-9.6 2.72h-1.44a62.56 62.56 0 0 1-8.48 0h-7.2a139.2 139.2 0 0 0-32 2.88 40.48 40.48 0 0 1-16-6.24c36.8-41.76 38.56-46.24 39.68-49.6a33.12 33.12 0 0 0-4.96-32 52.64 52.64 0 0 0-38.56-22.88c-12.8 0-16 0-84.16 70.24-16 16-33.92 35.2-50.4 53.12q1.12-4.48 1.92-9.28a178.08 178.08 0 0 0-3.2-78.24c20.16-4.32 55.2-42.56 58.88-53.44a39.04 39.04 0 0 0-27.2-48 37.76 37.76 0 0 0-10.08-1.6 96 96 0 0 0-56.96 30.88 57.28 57.28 0 0 0-5.12 6.56 97.28 97.28 0 0 0-27.84-16 122.88 122.88 0 0 0-41.92-7.04 259.04 259.04 0 0 0-93.6 22.56l-9.92 3.84a206.4 206.4 0 0 1-27.04 7.04 292.32 292.32 0 0 0-68.64 21.92c-53.44 27.2-54.4 63.2-55.04 87.2v2.08c0 20.8 8.16 75.84 36.8 105.92-0.96 0-1.6 1.44-1.6 2.24 0 18.72-26.08 38.4-26.08 38.4a31.04 31.04 0 0 0-28.64-15.04A145.44 145.44 0 0 0 160 352c-8.16 3.52-36.48 18.56-60.32 66.24-1.44 2.72-33.76 68.32-16.96 93.28a51.84 51.84 0 0 0 42.72 18.08 58.08 58.08 0 0 0 10.56-1.6 212.8 212.8 0 0 0-6.56 42.08 108.96 108.96 0 0 0 32 88.8c0 3.36-2.08 8.48-3.2 12.16a142.4 142.4 0 0 0-5.44 25.12c-3.04 30.08 20.16 110.4 73.44 150.4a164 164 0 0 0 115.68 38.08H352a72.8 72.8 0 0 0-19.36 20.96 30.24 30.24 0 0 0-2.24 24.8 40.48 40.48 0 0 0 25.6 23.04 42.08 42.08 0 0 1 4.8 2.24 172.48 172.48 0 0 0 76.48 15.04h5.44c75.36 0 80.8-21.28 82.88-29.28a51.84 51.84 0 0 0-3.04-32c39.84-2.24 64-21.92 96-50.88A119.04 119.04 0 0 0 656 750.72l4.8-3.84a241.12 241.12 0 0 0 28.8-25.92 60 60 0 0 0 18.72 33.28 80 80 0 0 0 52.32 16.96 166.4 166.4 0 0 0 30.56-3.2h2.24a21.44 21.44 0 0 1 3.52 0.96 88 88 0 0 0 20.32 3.52h3.04a96 96 0 0 0 80-45.6c25.12-43.36-2.72-107.84-4-110.56-12.48-28.48-50.72-43.52-73.6-43.52a58.4 58.4 0 0 0-38.4 16h-20.16a81.92 81.92 0 0 0-38.08 8.64v-27.68a38.08 38.08 0 0 0 24 9.92c14.4 0 24-8.96 44.16-34.4a125.12 125.12 0 0 0 25.12-38.24A32 32 0 0 0 816 480a28.64 28.64 0 0 0-3.2-4.16 29.6 29.6 0 0 0 1.44-10.72 131.36 131.36 0 0 0 28.64 3.04 93.28 93.28 0 0 0 80-36.64c22.72-32.48 37.12-131.68-0.48-181.12z" fill="#FFFFFF" p-id="8079"></path><path d="M822.56 599.36c-13.92 0-24.48 16-28 16-6.72 1.28-16 0-25.28 0a52.32 52.32 0 0 0-41.92 14.72c-14.72 16-21.92 86.08-1.92 102.72s52 9.28 64 7.36 16 3.36 30.08 4a68.16 68.16 0 0 0 58.08-32c14.72-25.28 2.08-69.28-5.28-85.92a61.6 61.6 0 0 0-49.76-26.88zM296.64 307.36c32 10.08 81.28-3.36 110.08-5.28s76 8.64 98.08 7.36 51.36-30.72 60.64-80-8-112-53.92-128-101.6 8.64-127.52 17.92-53.12 8.64-92.64 28-38.72 40.64-39.36 64 13.28 86.08 44.64 96z m292 24.64c6.72 2.08 152-162.72 154.08-168s-11.36-17.28-17.92-17.28-157.6 156.32-156 164a54.56 54.56 0 0 0 19.84 21.44z m252-112c5.28 1.28 41.28-45.28 43.36-51.36s-9.92-7.36-16-8-48 40.16-44.64 44a56.16 56.16 0 0 0 17.28 15.52zM209.92 372.8c5.28-9.28-29.28 0-38.72 4a110.72 110.72 0 0 0-46.72 53.28A138.08 138.08 0 0 0 105.92 496a30.88 30.88 0 0 0 28.64 4.64c6.72-3.36 4.64-26.72 14.72-59.36s55.36-59.2 60.64-68.48zM584 128a160 160 0 0 0 38.08-35.36c1.28-4-1.92-10.72-9.92-13.28s-44.64 20-43.36 32c0.48 6.72 9.12 18.08 15.2 16.64z m316.64 138.08c-28.64-37.92-89.92-17.28-101.92-13.92s-44.8-3.04-60 8.64c-48 37.28-36 103.36-33.92 120a40.32 40.32 0 0 0 34.72 32c14.72 1.28 58.08 20.64 81.28 26.08s64 3.36 80-21.92 28.48-112.96-0.16-150.24z m-107.36 233.28c2.08-6.72-1.28-5.28-7.36-6.72s-48 34.88-53.28 41.28c-1.92 2.72 12 18.72 17.28 18.72s41.44-46.56 43.36-53.28zM496 919.36c-4-1.28-16 3.36-62.72 2.72a78.4 78.4 0 0 1-56.64-18.72c-5.28 0-16 10.08-20 16s10.08 8.64 18.08 13.28a147.52 147.52 0 0 0 64 11.36 135.2 135.2 0 0 0 61.28-8.64c0-2.56 0-14.56-4-16z m122.72-489.92c-37.92-22.72-62.72-64-113.28-68s-84.64 24.96-128 30.72c-61.28 8-114.72 16-157.28 50.08a182.24 182.24 0 0 0-64 130.08 81.6 81.6 0 0 0 26.72 71.36c12.64 12-1.92 36-4 56a182.24 182.24 0 0 0 62.72 126.08c46.08 34.72 71.36 32 112 32s57.28 8.64 120 20 80 2.72 126.08-39.36 24.32-88.96 28.32-97.6 24.64-19.36 43.36-40.64 32-90.72 26.72-138.72-42.08-109.28-79.52-132z" fill="#1D1D1B" p-id="8080"></path><path d="M338.56 152.8a57.44 57.44 0 0 0 51.36 28 56.64 56.64 0 0 0 49.28-37.92c4.64-11.36 2.72-20 4.64-20s46.08-14.72 68.64 14.72a115.04 115.04 0 0 1 19.36 100c-9.92 26.72-33.92 46.72-48 46.72a598.4 598.4 0 0 0-105.28-6.72c-44.64 4-52 7.36-60.64 3.36a103.2 103.2 0 0 1-32-55.36 71.68 71.68 0 0 1 14.72-57.28 211.36 211.36 0 0 1 37.92-15.52z" fill="#E6E4DA" p-id="8081"></path><path d="M359.36 146.72c0-3.2 58.72-20 60.64-16a37.28 37.28 0 0 1-25.28 33.28 30.88 30.88 0 0 1-35.36-17.28z" fill="#E6E4DA" p-id="8082"></path><path d="M460 140.16c-1.12-3.36 10.08-5.28 13.28-2.72s20 42.08 16 45.28-12 6.72-14.72 2.08-13.92-42.72-14.56-44.64zM491.36 142.08c-0.8-2.56 7.36-2.72 12 2.08s14.08 26.72 10.08 29.28-6.72 4.64-9.92 2.08a183.52 183.52 0 0 1-12.16-33.44zM333.92 216.8C352 206.4 384 210.08 384 240s-44.64 34.72-56 22.72a28.16 28.16 0 0 1 5.92-45.92z" fill="#1D1D1B" p-id="8083"></path><path d="M345.28 228.16c7.68-4.16 22.72 1.28 22.72 11.84s-16 13.28-22.72 10.72a12.48 12.48 0 0 1 0-22.56z" fill="#FFFFFF" p-id="8084"></path><path d="M448 208c20-12.48 62.72 0 58.08 28.64s-36 34.08-53.28 32-58.24-26.56-4.8-60.64z" fill="#1D1D1B" p-id="8085"></path><path d="M456 220.16c7.04-3.36 32-3.36 32 14.08s-22.72 24-37.28 20-14.08-24.8 5.28-34.08z" fill="#FFFFFF" p-id="8086"></path><path d="M756 284.8c5.6-5.44 24.64-6.72 26.08-2.72s4.64 32 23.36 42.72a42.72 42.72 0 0 0 41.28 6.08c11.36-4 19.36-9.92 18.08-12.64s-5.28-10.72-8-10.72-26.72 17.28-42.72 4-9.92-32-2.72-34.72 52.64-9.28 64 6.08 10.08 112 3.36 107.36-13.92-26.72-17.92-26.72-12.64 3.36-10.72 8 22.08 27.36 18.08 32-11.36 10.08-14.72 7.36-10.72-35.36-17.28-34.72-16 4-13.28 8 10.72 23.36 6.72 24-33.92-9.28-48-10.72-34.72 2.08-41.92-17.28-7.68-72 16.32-95.36z" fill="#E6E4DA" p-id="8087"></path><path d="M774.56 340.16a29.12 29.12 0 0 1 37.28 22.72c0 16-28.64 28.64-44 17.28s-17.92-30.08 6.72-40z" fill="#1D1D1B" p-id="8088"></path><path d="M780.96 354.56a9.6 9.6 0 0 1 12.32 7.52c0 5.44-9.44 9.44-14.56 5.76s-5.92-10.08 2.24-13.28z" fill="#FFFFFF" p-id="8089"></path><path d="M745.28 642.08c2.24-2.72 14.72-5.92 14.08-2.72s-9.28 18.08 8 25.28a55.84 55.84 0 0 1 22.72 14.72s3.36 34.08-1.92 34.08-9.28 1.28-9.92-1.92 0-24-3.36-24.64-11.36-4-12 0 2.08 30.08-1.28 28-8 2.08-13.92-7.36-8.32-58.08-2.4-65.44zM832 633.44c2.08-1.28 8.64-4 12-1.28a64 64 0 0 1 10.72 45.28c-2.72 24-5.92 29.28-10.72 30.72s-4 4-4.64 1.28 0-23.36-4-24-12.64 0-13.28 2.08 3.36 28.64-1.92 28-13.92 0-14.72-4a128 128 0 0 1-1.28-32c2.08 0 24.64-1.28 29.28-16a49.6 49.6 0 0 0-1.44-30.08z" fill="#E6E4DA" p-id="8090"></path><path d="M788 633.44c22.08-2.72 32 12 30.08 21.28s-13.92 16-29.92 6.72-16.8-26.08-0.16-28z" fill="#FFFFFF" p-id="8091"></path><path d="M372 416c23.2-2.72 50.08-16 88-20a132.8 132.8 0 0 1 104 26.72 400 400 0 0 1 80 77.28 150.56 150.56 0 0 1 22.72 126.72c-12.64 49.28-17.92 59.36-33.92 71.36s-35.36 30.08-36 36.64 16 58.08-16 86.72-56 38.08-72.64 36.64-72-21.92-128-22.72-90.24-3.36-115.52-22.56a185.44 185.44 0 0 1-52.64-85.28c0-12-3.36-23.36 1.28-25.28s51.36-9.92 65.28-21.28 11.36-36.64 0-53.92S258.56 595.36 240 592s-44 18.72-44 18.72a59.68 59.68 0 0 1-8.64-44C192 544 204 491.36 240 458.72s92.64-38.56 132-42.72z" fill="#E6E4DA" p-id="8092"></path><path d="M274.56 460.16c4.48-3.04 17.28 4.64 14.72 9.28a252.48 252.48 0 0 0-32 42.72c-5.92 16-2.72 25.28-8.64 28s-14.72 10.08-16 0a86.56 86.56 0 0 1 11.36-41.92 152.8 152.8 0 0 1 30.56-38.08zM457.92 430.08c30.72-8 57.28 9.28 74.72 20a93.92 93.92 0 0 0 38.72 18.08c14.08 2.08 24 5.28 26.72 16s0 37.28-8 40.64-41.28 4-57.28 17.28-21.28 27.36-43.36 32-45.28 8.64-69.92-11.36-48.16-109.92 38.4-132.64z" fill="#1D1D1B" p-id="8093"></path><path d="M464 446.08a87.84 87.84 0 0 1 52.64 13.28c18.08 10.72 14.08 12.64 32 17.28s30.08 6.72 32 14.08 6.08 20.64-2.72 23.36-40 2.08-55.36 12.64S496 563.36 462.56 560a54.24 54.24 0 0 1-48-51.36A59.36 59.36 0 0 1 464 446.08z" fill="#FFFFFF" p-id="8094"></path><path d="M569.28 592a41.6 41.6 0 0 1 58.08 52c-14.72 40.64-57.92 45.28-77.28 22.72a50.08 50.08 0 0 1 19.2-74.72z" fill="#1D1D1B" p-id="8095"></path><path d="M575.04 606.56A26.56 26.56 0 0 1 612 640a29.6 29.6 0 0 1-49.44 14.4 32 32 0 0 1 12.48-47.84zM209.92 626.08c2.72-1.92 16-17.92 33.28-11.36s32 45.28 26.08 50.08a207.04 207.04 0 0 1-51.36 18.08c-1.28-1.92 6.08-27.36 3.36-36a93.6 93.6 0 0 0-11.36-20.8z" fill="#FFFFFF" p-id="8096"></path><path d="M396 686.72c7.2-3.04 58.08-5.28 67.36 3.36s14.08 35.36 35.36 46.08 32 18.08 32 36.64a36.32 36.32 0 0 1-32 33.28c-12.64 0-46.72-14.72-73.28-14.72a135.36 135.36 0 0 1-61.92-9.28 45.76 45.76 0 0 1-13.92-43.36c4.96-8 20.32-40.64 46.4-52z" fill="#1D1D1B" p-id="8097"></path><path d="M407.36 702.72c10.88-4.64 42.08-4.64 46.72 3.36s10.72 26.72 20.64 32 41.28 18.72 40.64 29.92-14.72 25.28-16 24a131.52 131.52 0 0 0-65.92-16c-35.36 1.28-41.28 6.08-51.36 0s-17.92-20-14.72-28a141.12 141.12 0 0 1 40-45.28z" fill="#FFFFFF" p-id="8098"></path><path d="M328.64 596.16a8.96 8.96 0 0 1 16 0c3.36 7.36 18.72 80 14.08 82.72s-9.28 8.64-12.64 3.36a513.6 513.6 0 0 1-17.44-86.08zM366.56 594.72a8.8 8.8 0 0 1 13.28 0c2.08 4 14.72 60.64 8.64 62.72s-11.36 6.08-13.92-1.28-12-55.36-8-61.44zM406.56 602.08c1.44-4.48 11.36-1.92 13.28 1.28a304 304 0 0 1 6.08 54.08c-1.28 2.72-11.36 3.36-13.28-1.28a417.44 417.44 0 0 1-6.08-54.08zM444.64 610.08a7.36 7.36 0 0 1 11.36 0c4 4 17.28 54.72 9.28 55.36s-12 3.36-16-5.92a149.92 149.92 0 0 1-4.64-49.44zM482.56 603.36c2.88-2.88 12-6.72 13.28 1.28s2.08 21.28-2.72 23.36-9.92 7.36-12 0a50.56 50.56 0 0 1 1.44-24.64zM256 723.36c0-5.12 10.72-5.92 12.64 0s8 22.72 4.64 24-5.92 3.36-10.72 1.28-6.56-19.2-6.56-25.28z" fill="#1D1D1B" p-id="8099"></path></svg>