<?xml version="1.0" standalone="no"?><!DOCTYPE svg PUBLIC "-//W3C//DTD SVG 1.1//EN" "http://www.w3.org/Graphics/SVG/1.1/DTD/svg11.dtd"><svg t="1664551487745" class="icon" viewBox="0 0 1024 1024" version="1.1" xmlns="http://www.w3.org/2000/svg" p-id="8410" xmlns:xlink="http://www.w3.org/1999/xlink" width="200" height="200"><path d="M133.28 234.24c-4-4-50.72-45.28-40-101.28s93.28-76 130.72-56S272 160 272 160s101.28-41.28 165.28-45.28a583.52 583.52 0 0 1 114.72 4s-22.72-37.28 13.28-57.28 89.28-8 100 17.28-6.72 64-6.72 64l-12 5.28 29.28 48L704 167.68s2.72-60 72-58.72 93.28 57.28 92 80a46.88 46.88 0 0 1-12 32s86.72-9.28 96 60-22.72 105.28-42.72 113.28-93.28 2.72-93.28 2.72a291.52 291.52 0 0 1 20 76c1.28 30.72-30.72 69.28-30.72 69.28s82.72 6.72 96 64-65.28 106.72-65.28 106.72 53.28 46.72 52 104-28 113.28-68 129.28-105.28-4-132-61.28a107.68 107.68 0 0 1-92 86.72c-80 10.72-137.28-40-156-109.28 0 0-52-9.28-89.28-20s-57.28-17.28-57.28-17.28 5.28 28 8 58.72-2.72 69.28-25.28 77.28-109.6-4.16-153.6-49.12-12-113.28-12-113.28l16-5.28s-45.28-34.72-26.72-69.28S166.56 704 166.56 704a332.48 332.48 0 0 1-66.72-176c-8-106.72 13.28-165.28 13.28-165.28S54.56 340.96 74.56 304a276.48 276.48 0 0 1 58.72-69.76z" fill="#FFFFFF" p-id="8411"></path><path d="M251.04 888.64a43.84 43.84 0 0 0-9.92-43.04 37.92 37.92 0 0 0-43.52-7.52s-29.92-32-41.44-10.56 12.48 43.04 12.48 43.04a30.4 30.4 0 0 0 7.36 37.6 46.24 46.24 0 0 0 41.44 6.08s38.08 25.44 48 7.04-14.4-32.64-14.4-32.64z m-77.44-27.52s-14.56-17.44-8.48-24.96 24.96 7.52 24.96 7.52-15.52 17.44-16.48 17.44z m79.04 54.08c-4.96 3.52-18.56-5.92-18.56-5.92l7.04-11.04c4.48 2.4 16.48 13.76 11.52 16.96zM432 529.6c0-8.48-60.96-36-61.92-115.04s38.08-144 132.96-163.04 136-1.92 143.04-8.96 12-44-44-76.96S375.52 112 242.56 238.72 123.52 502.08 137.12 556.64a334.24 334.24 0 0 0 128 190.56c77.44 53.44 120.48 71.04 188.48 81.44s140-22.56 179.04-48.96 48-54.56 47.04-66.56-14.08-31.04-23.68-28.48-81.92 35.52-147.52 16-85.44-64-84.96-96 6.56-56 8.48-75.04zM124.64 139.2c3.84-1.28 27.52 2.08 28.48 0s4-34.56 11.52-33.44 8.48 27.52 14.08 28.48 26.56-1.44 28 4-17.44 21.44-16.96 24 4 14.08 0 16-20-4.48-20.48-3.04S148 202.08 144 200.16s-8-2.56-7.52-5.44 10.08-34.72 10.08-34.72l-24-12.8c-2.56-1.6-0.96-7.04 2.08-8zM114.56 299.68c12.16-7.52 20.48 0 17.92 13.44a14.08 14.08 0 0 1-21.92 8.48 14.4 14.4 0 0 1 4-21.92zM596.64 77.12a27.36 27.36 0 0 1 38.56 27.04 28.8 28.8 0 0 1-48 18.56 27.84 27.84 0 0 1 9.44-45.6z" fill="#1D1D1B" p-id="8412"></path><path d="M601.28 88.8a14.72 14.72 0 0 1 20.8 14.56 16 16 0 0 1-26.24 10.08 15.04 15.04 0 0 1 5.44-24.64z" fill="#FFE19B" p-id="8413"></path><path d="M752 192c3.2 0 0-45.44 5.44-48s20.48 28.48 26.08 28 26.08-12.48 32-8.96-4.96 39.04-4 41.44 16 22.56 10.56 26.56-29.92-4.96-32-3.52-13.44 23.04-18.56 22.56-5.44-32-11.04-33.44-32.96-4.48-34.56-10.56S749.12 192 752 192zM866.08 275.68a40.48 40.48 0 0 1 44 43.52c-3.52 34.56-48 36-66.56 16a36.96 36.96 0 0 1 22.56-59.52z" fill="#1D1D1B" p-id="8414"></path><path d="M869.12 292.16a21.92 21.92 0 0 1 23.84 23.68c-1.92 18.72-25.76 19.52-36.16 8.96a20 20 0 0 1 12.32-32.64z" fill="#FFE19B" p-id="8415"></path><path d="M556 346.72c16-7.04 50.56 0 40.96 32.96s-52.96 24.96-60.96 7.52a32 32 0 0 1 20-40.48z" fill="#1D1D1B" p-id="8416"></path><path d="M560 357.44c9.92-4.16 30.08 0 24.48 19.68a20.64 20.64 0 0 1-36.32 4.48 19.04 19.04 0 0 1 11.84-24.16z" fill="#FFE19B" p-id="8417"></path><path d="M730.56 466.08s22.08-44 28.96-44.96 7.52 48 7.52 48 31.04 2.56 30.08 7.52-24.96 16.96-24.96 16.96 8.48 35.04 4 37.44-22.56-26.56-22.56-26.56-33.92 17.44-36.96 13.44 7.52-33.92 7.52-33.92-24-8.48-23.52-12.48 26.4-2.4 29.92-5.44zM567.04 546.08a17.92 17.92 0 0 1 20.96 23.04 20 20 0 0 1-32 4.96c-9.44-10.88 2.08-25.44 11.04-28zM800 594.08c16-4.16 40.48-4.48 47.04 24s-26.56 40.48-52.96 34.08-31.04-48.48 5.92-58.08z" fill="#1D1D1B" p-id="8418"></path><path d="M804.16 606.72a19.04 19.04 0 0 1 26.4 13.44c3.68 16-14.88 22.72-29.76 19.04a16 16 0 0 1 3.36-32.48z" fill="#FFE19B" p-id="8419"></path><path d="M137.6 736a19.04 19.04 0 0 1 29.92 15.04c0 17.44-23.52 21.44-32 14.56A19.52 19.52 0 0 1 137.6 736zM552.64 865.6a30.24 30.24 0 0 1 40.48 32 36.64 36.64 0 0 1-56 22.08c-24-18.56-15.52-46.08 15.52-54.08z" fill="#1D1D1B" p-id="8420"></path><path d="M555.2 880a16 16 0 0 1 20.8 16 19.2 19.2 0 0 1-29.44 11.52c-12-9.28-7.52-23.68 8.64-27.52z" fill="#FFE19B" p-id="8421"></path><path d="M787.52 835.2c0.96-1.44 25.44-44.96 32-48s6.56-2.56 8 0 0 45.44 0 45.44 16 0 16 4.48-16.96 18.56-16.96 18.56 4.96 31.04 0 33.44a12 12 0 0 1-11.04-1.44l-7.04-17.44a175.04 175.04 0 0 1-35.52 14.08c-2.56-1.92-9.44-6.56-5.92-9.44a132.48 132.48 0 0 0 12.48-20.48s-33.92-3.04-35.04-7.04-0.96-9.44 1.44-10.56 41.6-1.6 41.6-1.6z" fill="#1D1D1B" p-id="8422"></path><path d="M188 864s18.56-28.96 40-12.96 0 48-1.44 47.04A72.48 72.48 0 0 1 188 864zM184 882.72s16 16 20.96 19.52l4.48 3.52a41.76 41.76 0 0 1-24.48-2.56c-9.92-5.6-0.96-20.48-0.96-20.48z" fill="#CBE7F5" p-id="8423"></path><path d="M202.08 862.08s8.96-8.96 14.56-8.48a10.88 10.88 0 0 1 8 4.48l-9.92 6.08-8.96 5.44a30.56 30.56 0 0 0-3.68-7.52z" fill="#1D1D1B" p-id="8424"></path><path d="M612.64 221.92c4-0.96-16-33.6-45.6-44.96a268.32 268.32 0 0 0-147.68-2.4A406.56 406.56 0 0 0 272 249.28 302.4 302.4 0 0 0 194.56 352 237.28 237.28 0 0 0 160 480a302.56 302.56 0 0 0 54.72 161.6 388.96 388.96 0 0 0 96 96 155.68 155.68 0 0 0 32 18.72S336 736 339.2 734.72a16 16 0 0 1 12.8 1.28 172.64 172.64 0 0 0 3.68 26.4c2.08 0.96 9.6 7.04 9.6 6.08a361.44 361.44 0 0 1-3.68-43.36c1.6-1.92 16-1.6 17.28 1.6s0 43.36 1.28 44.64a36.16 36.16 0 0 0 10.4 6.72c0.96 0-1.6-28.96 0-28.96s12.32 0.96 13.28 3.04 0 29.6 1.28 32a151.36 151.36 0 0 0 85.44 15.84 240 240 0 0 0 119.36-36.96c26.72-16 43.36-36.96 41.6-41.28s-2.4-5.6-4.64-5.92S544.96 753.6 480 720s-84-77.6-86.72-100.96 9.6-73.6 8-77.28-61.28-50.4-64-105.28 4.96-101.92 48.96-148.32a236.8 236.8 0 0 1 141.6-68.32c29.76-0.48 83.36 2.4 84.8 2.08z" fill="#E6E4DA" p-id="8425"></path><path d="M385.6 211.04a25.44 25.44 0 0 1 33.28 19.36 27.52 27.52 0 0 1-39.36 28.64c-26.24-9.12-13.28-41.12 6.08-48z" fill="#1D1D1B" p-id="8426"></path><path d="M388.96 224a12.16 12.16 0 0 1 16 9.28 13.28 13.28 0 0 1-18.88 13.76c-12.64-4.64-6.4-20 2.88-23.04z" fill="#FFFFFF" p-id="8427"></path><path d="M279.52 276.96c12.32-8.8 50.4-7.36 53.6 22.72S304 353.28 278.88 336a37.44 37.44 0 0 1 0.64-59.04z" fill="#1D1D1B" p-id="8428"></path><path d="M288 289.76c7.04-5.12 29.12-4.32 31.04 13.12a21.28 21.28 0 0 1-32 21.44 21.6 21.6 0 0 1 0.96-34.56z" fill="#FFFFFF" p-id="8429"></path><path d="M225.92 344.32c2.24-2.08 12.64 0 12 6.08a361.28 361.28 0 0 1-24.64 67.36c-4.96 4.32-12 6.4-14.72 0a168 168 0 0 1 27.36-73.44zM228.32 460.32c21.44-8.96 68 0 60.32 55.04s-61.6 40.32-76 18.4-19.36-58.72 15.68-73.44z" fill="#1D1D1B" p-id="8430"></path><path d="M233.44 473.76c15.04-6.24 48 0 42.24 38.4s-43.2 28.16-53.12 12.8-13.6-40.8 10.88-51.2z" fill="#FFFFFF" p-id="8431"></path><path d="M309.92 602.72c21.44-8.96 68 0 60.32 55.04s-61.6 40.32-76 18.4-19.36-58.88 15.68-73.44z" fill="#1D1D1B" p-id="8432"></path><path d="M315.04 616.16c15.04-6.24 48 0 42.24 38.4s-43.2 28.16-53.12 12.8-13.6-40.96 10.88-51.2z" fill="#FFFFFF" p-id="8433"></path><path d="M442.56 733.92A18.08 18.08 0 0 1 468.64 752c0 14.4-10.72 25.28-25.6 20a20.16 20.16 0 0 1-0.48-38.08z" fill="#1D1D1B" p-id="8434"></path><path d="M445.92 744a8.48 8.48 0 0 1 12.16 8.64c0 6.72-4.96 11.84-12 9.44a9.44 9.44 0 0 1-0.16-18.08z" fill="#FFFFFF" p-id="8435"></path></svg>