<?xml version="1.0" standalone="no"?><!DOCTYPE svg PUBLIC "-//W3C//DTD SVG 1.1//EN" "http://www.w3.org/Graphics/SVG/1.1/DTD/svg11.dtd"><svg t="1664551476276" class="icon" viewBox="0 0 1024 1024" version="1.1" xmlns="http://www.w3.org/2000/svg" p-id="8246" xmlns:xlink="http://www.w3.org/1999/xlink" width="200" height="200"><path d="M526.24 940.32c-12.8 0-25.92 0-38.72-1.92-152.96-15.2-228.48-52.32-311.52-152.8-73.6-90.72-104.16-229.76-106.08-296-1.44-55.84 24.8-153.6 103.68-244.64 74.56-86.24 140.48-144 369.28-160 15.04-1.12 26.4-1.44 37.12-1.44 70.24 0 131.36 19.84 235.84 121.6 123.04 119.84 135.2 208 138.24 310.72A390.56 390.56 0 0 1 843.68 800c-53.76 52.32-166.4 140.32-317.44 140.32z" fill="#FFFFFF" p-id="8247"></path><path d="M544 112c80-5.6 136 0 252 112s127.04 192 130.08 292a362.4 362.4 0 0 1-101.92 263.52c-64.96 64-183.04 146.08-334.56 131.04S272 858.24 197.76 768 98.72 544 97.12 488.8s27.04-144.96 96.96-225.92S322.24 128 544 112z" fill="#1D1D1B" p-id="8248"></path><path d="M489.12 147.84c67.04-6.56 132.48-8.48 190.08 20.96s143.04 128 156.96 144.96a124.8 124.8 0 0 1 20.48 35.04s-28 19.2-17.44 68 28.96 68.96 36.96 75.52a69.76 69.76 0 0 0 17.44 10.08s4.96 103.04-21.92 157.92S768 812.8 699.2 838.88 509.12 919.84 384 861.76 221.76 748.8 176 656 126.24 469.76 148.64 402.4s94.56-156 153.12-196 136.48-53.6 187.36-58.56z" fill="#E6E4DA" p-id="8249"></path><path d="M864 368c2.88 0 12.48 28.48 20 58.56a106.56 106.56 0 0 1 4 44.96 90.56 90.56 0 0 1-30.56-45.44c-7.2-28.32 2.72-58.08 6.56-58.08z" fill="#FFFFFF" p-id="8250"></path><path d="M742.72 250.4A170.24 170.24 0 0 1 787.2 288c-0.96 3.52 1.44 12.96-3.52 9.44s-44-33.44-44.96-36a12.8 12.8 0 0 1 4-11.04zM741.12 301.76A400 400 0 0 1 796.64 352a13.76 13.76 0 0 1-3.04 9.44s-54.56-47.04-56-48.96 3.52-10.72 3.52-10.72zM733.12 339.84A390.24 390.24 0 0 1 786.72 384c0 4.48-1.44 10.56-3.04 11.04s-59.52-36.48-58.56-40.96 5.12-15.68 8-14.24zM612.64 288a39.52 39.52 0 0 1 55.52 36.96 52.32 52.32 0 0 1-68.96 48c-24.96-13.6-28.48-68.96 13.44-84.96z" fill="#1D1D1B" p-id="8251"></path><path d="M616.32 300.48a27.36 27.36 0 0 1 38.4 25.6 36.16 36.16 0 0 1-48 32.8c-16.96-8.64-19.52-47.04 9.6-58.4z" fill="#FFFFFF" p-id="8252"></path><path d="M243.2 332.8c1.92 0 19.04 8.48 17.44 10.08a140.64 140.64 0 0 0-32.96 55.52c-8 30.08-4.48 41.44-9.44 42.08s-16 0-16.96-3.04a176 176 0 0 1 12.96-53.44c8.48-19.2 23.52-49.12 28.96-51.2zM393.12 331.36c41.28-10.4 108.96 11.52 119.04 91.04s-82.08 120-146.56 80-93.6-140.64 27.52-171.04z" fill="#1D1D1B" p-id="8253"></path><path d="M399.04 361.12a66.72 66.72 0 0 1 80 61.6c6.72 53.92-55.52 81.28-99.2 54.56s-62.72-95.52 19.2-116.16z" fill="#FFFFFF" p-id="8254"></path><path d="M237.76 533.76c8.8-3.84 33.44 0 34.56 32.96s-20.96 51.52-44.96 45.44-36.64-57.76 10.4-78.4z" fill="#1D1D1B" p-id="8255"></path><path d="M240 551.84c10.08-3.2 21.44 8.48 20 23.04s-14.56 31.04-29.92 24.96-18.88-38.56 9.92-48z" fill="#FFFFFF" p-id="8256"></path><path d="M480 638.4c22.08-11.84 44.48-4.48 50.08 19.52a39.84 39.84 0 0 1-38.56 52A37.28 37.28 0 0 1 480 638.4z" fill="#1D1D1B" p-id="8257"></path><path d="M487.68 652.8a19.36 19.36 0 0 1 31.04 16.96 25.12 25.12 0 0 1-34.56 24.48c-16.48-7.84-17.44-28.96 3.52-41.44z" fill="#FFFFFF" p-id="8258"></path><path d="M332.16 680.32c2.08 2.08 0 11.04 12 20.96s18.08 10.08 16.96 13.44-1.92 7.52-5.44 7.52a65.12 65.12 0 0 1-24-15.04c-8-7.52-16-24-12-25.44a48 48 0 0 1 12.48-1.44zM298.24 684.32A103.52 103.52 0 0 0 320 718.4c16 16 26.08 19.52 24.48 23.04s-5.92 8.48-9.44 7.04a240 240 0 0 1-33.92-32c-9.44-11.04-19.52-27.04-16.96-29.44s14.08-2.72 14.08-2.72zM267.68 688.8a312.64 312.64 0 0 0 30.08 46.08c17.44 19.52 26.56 21.44 25.44 24.48a7.68 7.68 0 0 1-7.52 6.08c-4.96 0-26.56-19.52-41.92-37.44s-23.52-31.04-20.48-33.44a61.12 61.12 0 0 1 14.4-5.76zM625.76 758.88c23.04-1.44 33.44 8.96 27.52 35.52s-28 24-41.92 16-27.68-49.12 14.4-51.52z" fill="#1D1D1B" p-id="8259"></path><path d="M626.72 771.84a16 16 0 0 1 13.28 23.04 13.92 13.92 0 0 1-24.48 0 16 16 0 0 1 11.2-23.04z" fill="#FFFFFF" p-id="8260"></path><path d="M717.12 568.32c40.16-9.44 59.52 3.04 70.56 45.44s-28.48 72.48-59.52 79.04-45.92 4-63.04-35.04-3.36-76.48 52-89.44z" fill="#1D1D1B" p-id="8261"></path><path d="M712.64 583.36c13.12-4.16 42.08-13.44 53.44 18.08s10.08 51.04-16 67.04S713.12 688 688 665.76s-29.28-65.44 24.64-82.4z" fill="#FFFFFF" p-id="8262"></path><path d="M844.16 512a170.24 170.24 0 0 1 34.56 40c0 4-2.56 10.08-4.48 8.96a276.48 276.48 0 0 1-38.56-37.92c0.48-3.68 4.96-11.04 8.48-11.04zM821.12 535.84c0 3.2 48 51.52 48 56s-1.44 10.56-3.52 9.44a612.96 612.96 0 0 1-52.96-55.52c1.12-1.76 8.48-11.36 8.48-9.92zM818.72 582.4a357.12 357.12 0 0 1 43.52 48c0 3.52-2.56 12-4.96 11.04s-48-46.56-48-48 6.72-11.68 9.44-11.04z" fill="#1D1D1B" p-id="8263"></path></svg>