<?xml version="1.0" standalone="no"?><!DOCTYPE svg PUBLIC "-//W3C//DTD SVG 1.1//EN" "http://www.w3.org/Graphics/SVG/1.1/DTD/svg11.dtd"><svg t="1664551496799" class="icon" viewBox="0 0 1024 1024" version="1.1" xmlns="http://www.w3.org/2000/svg" p-id="8582" xmlns:xlink="http://www.w3.org/1999/xlink" width="200" height="200"><path d="M548 961.76a494.56 494.56 0 0 1-140.96-21.92C233.76 888.8 156.8 797.12 104.48 714.24c-71.2-112-35.36-288.96-22.72-340.32 14.24-57.92 83.68-250.72 378.24-304a418.24 418.24 0 0 1 75.2-7.36c67.68 0 118.56 19.2 183.36 52.48 78.72 40.32 130.88 81.6 197.12 195.2 73.6 126.08 44.64 288 20.64 374.4-31.2 112-77.92 172.64-166.88 216.48-65.44 31.84-131.2 60.64-221.44 60.64z" fill="#FFFFFF" p-id="8583"></path><path d="M464 96c104.32-18.88 164.64 3.36 241.28 42.72s123.36 77.28 186.08 184.64S938.08 576 910.08 677.12s-67.36 157.28-152.64 199.36S576 961.12 414.72 913.76 180.16 783.04 128 699.68 83.52 480 108.16 380.32 226.08 139.68 464 96z" fill="#1D1D1B" p-id="8584"></path><path d="M197.44 276.32c-1.92-5.76 64-94.72 192-132s182.08-21.92 222.08-11.36 56 22.72 54.72 26.08-3.36 6.72-8 6.08-56-23.36-85.28-12-28.96 20-50.24 21.28-57.92 1.28-65.92 6.08-11.36 13.28-8 17.28 50.72 0 51.36 6.08 8 52.64 30.72 53.28 69.28-14.72 86.72-12.64 62.72 68.64 96 67.36 110.72-23.36 122.08-18.72 44.32 45.28 56.48 165.28-12.16 196-13.44 193.92a1110.56 1110.56 0 0 0-84-73.92c-4 0-12 10.72-9.28 14.72s90.08 70.72 89.28 76.64-24 62.72-27.36 61.28-45.28-43.04-51.2-39.36-11.36 10.72-9.92 12.64 55.36 36 54.08 40a131.04 131.04 0 0 1-12.64 18.08 542.88 542.88 0 0 0-55.36-45.28c-3.36 1.28-12 8.64-9.28 12s53.28 48 53.28 48-60-13.28-75.36-5.92S688 848 679.52 857.76s-30.72 32-46.72 35.36-134.72 20.64-234.72-21.28-168-76.64-229.92-174.72-45.28-208-42.08-209.92 82.72-20 88-32 16-48 23.36-67.36 24-70.72 17.28-81.28-56-26.24-57.28-30.24z" fill="#85BFE9" p-id="8585"></path><path d="M270.08 274.4c-2.08-2.88 22.72-29.28 48-48s50.72-37.92 57.28-32 11.36 11.36 6.08 16a161.92 161.92 0 0 0-65.92 44c-24.64 32-25.92 38.08-29.92 37.28s-13.6-14.56-15.52-17.28z" fill="#1D1D1B" p-id="8586"></path><path d="M526.72 195.68c2.88-5.6 23.36 6.72 32 2.72s20-20.64 35.36-16 52 12.64 62.08 8a29.76 29.76 0 0 0 13.28-10.72s8.64-12.64 12.64-12A380.16 380.16 0 0 1 768 219.68c41.28 32 51.36 43.36 46.08 45.28a488.48 488.48 0 0 1-76.64 14.08 80 80 0 0 1-36.64-4c-8-3.36-53.28-57.92-78.72-58.72a140.96 140.96 0 0 0-51.36 6.72c-17.28 4.64-19.36 12-27.36 6.72s-19.2-28.64-16.64-34.08zM182.08 304c2.4-2.24 44.64 16 44 22.08a1139.36 1139.36 0 0 1-33.92 112c-4 2.72-73.28 22.08-72 18.08s22.56-115.84 61.92-152.16z" fill="#CBE7F5" p-id="8587"></path><path d="M213.44 548.32a158.72 158.72 0 0 1 108-32c50.08 7.36 61.28 20.64 80 12s44.64-43.36 64-44.64 54.72 4.64 94.08 6.08 93.28 0 99.36 6.08a54.24 54.24 0 0 1 5.28 41.28c-4.64 10.72-32 26.72-34.72 35.36s-1.92 22.08 4 22.08 40.64-16 54.08-12.64 34.08 24.64 53.28 28 33.28-3.36 38.08 4-1.28 36-4.64 46.08a60.8 60.8 0 0 1-29.92 37.28c-17.28 6.72-64 12.64-68.64 18.08a70.08 70.08 0 0 0-12.16 20.64c-3.36 7.36-16 32-35.36 36.64a148.96 148.96 0 0 1-45.92 4 356 356 0 0 1-48-12.64s-38.24-46.88-48.8-50.24-55.36-1.28-70.72-17.92-25.92-89.28-41.28-92.64a182.08 182.08 0 0 0-64 4A127.04 127.04 0 0 1 240 598.4c-20.64-8-24.64-8.64-25.92-14.72s-6.08-28-0.64-35.36z" fill="#1D1D1B" p-id="8588"></path><path d="M249.44 555.68c2.88-9.76 33.92-21.92 72-13.92s53.28 28 85.28 18.72 45.28-41.92 68-44 90.72 8.64 110.72 9.28 43.36-5.28 44.64 0S612.8 544 608 555.68s-10.72 41.28-4.64 50.72a35.36 35.36 0 0 0 24 16c6.08 0 42.08-13.28 53.28-8a273.28 273.28 0 0 0 42.08 20.64c20 6.72 32 1.28 32 8.64a58.56 58.56 0 0 1-20 30.72c-8.64 5.28-75.36 6.72-80 14.08s-16 54.08-33.28 56-48 4-56-1.92-43.36-54.72-49.92-54.72-74.72-2.72-76-13.92a486.24 486.24 0 0 0-28-89.28 138.88 138.88 0 0 0-66.72-12.64 302.4 302.4 0 0 1-60.64 4.64c-30.08-2.24-36.64-14.24-34.72-20.96z" fill="#CBE7F5" p-id="8589"></path><path d="M240 665.12c3.68-2.72 46.08-3.36 46.72 2.72s4 12 0 14.08a118.88 118.88 0 0 1-43.36 1.28c-4.64-3.52-5.92-16.16-3.36-18.08zM296.16 784c-2.72-2.72 12.64-12 26.08-9.28a82.88 82.88 0 0 0 32 4c16-1.28 34.08-5.92 36-1.92s6.08 13.28 1.28 14.72a156.16 156.16 0 0 1-42.72 2.08 73.76 73.76 0 0 0-32-1.28c-6.72 2.72-8 9.28-13.28 5.28s-4.8-11.2-7.36-13.6zM514.08 833.76a71.2 71.2 0 0 1 35.36-5.28c2.08 2.72 6.08 11.36 1.28 14.72s-22.72 12.64-29.28 8.64a17.76 17.76 0 0 1-7.36-18.08z" fill="#1D1D1B" p-id="8590"></path><path d="M729.44 858.4c-5.28 1.28-21.28-6.72-17.28-9.92s36.64-52.64 44-53.28 54.72 5.28 52 10.08a272 272 0 0 1-44 29.28c-14.72 8.48-34.72 23.84-34.72 23.84z" fill="#CBE7F5" p-id="8591"></path><path d="M328.16 406.4c2.4-1.44 22.72 8 35.36 6.72s20-6.72 20.64 0 1.28 11.36-1.28 12.64a113.12 113.12 0 0 1-34.72 2.72 46.4 46.4 0 0 1-22.72-5.92c-1.28-2.24-0.64-14.24 2.72-16.16zM646.08 431.04c0 2.72 30.08 0 30.72 5.28s1.28 9.28-5.28 10.72a60.8 60.8 0 0 1-29.28-1.28c-4.16-3.36 3.84-15.36 3.84-14.72zM816 366.4c4.32-3.2 50.08 34.72 50.72 39.36s3.36 10.72-2.72 10.72a261.6 261.6 0 0 1-55.36-32A30.72 30.72 0 0 1 816 366.4zM803.52 423.04s70.08 54.72 68.64 60.64-1.28 10.08-5.28 8-68-51.36-68.64-53.28a52 52 0 0 1 5.28-15.36zM800 481.76c2.08 0 74.08 52.64 74.72 59.36s2.08 14.72-1.28 14.08a823.04 823.04 0 0 1-74.72-53.28 23.84 23.84 0 0 1 1.28-20.16zM800 535.68c2.4-3.52 72 56 72 60.64s9.28 16-1.92 10.72a492.8 492.8 0 0 1-72-56 27.84 27.84 0 0 1 1.92-15.36zM437.44 318.4c0.96-1.76 55.36 4 56-4a101.28 101.28 0 0 1 9.28-36.64 385.28 385.28 0 0 1 84.64-3.36c33.28 2.72 58.72 12 60.64 18.72s-7.36 17.28 4 22.72 42.72 12 44 20-16 56.64-23.36 57.28a125.76 125.76 0 0 0-53.92 2.08c-25.28 8.64-72 16-81.92 2.08s-32-53.28-37.28-52.64-45.28 16-50.72 10.72a73.12 73.12 0 0 1-11.36-36.96z" fill="#1D1D1B" p-id="8592"></path><path d="M533.44 305.12c4.32-2.24 82.72 0 84.64 4A80 80 0 0 0 636.8 336c6.72 3.36 32 6.72 32 12s1.28 12.64-3.36 13.28l-76.64 8.64c-18.72 2.08-24.64 9.28-32 1.28s-19.36-43.36-25.92-46.72-7.36-5.92-8-9.92 6.56-7.52 10.56-9.44z" fill="#CBE7F5" p-id="8593"></path></svg>