<?xml version="1.0" standalone="no"?><!DOCTYPE svg PUBLIC "-//W3C//DTD SVG 1.1//EN" "http://www.w3.org/Graphics/SVG/1.1/DTD/svg11.dtd"><svg t="1664551326664" class="icon" viewBox="0 0 1024 1024" version="1.1" xmlns="http://www.w3.org/2000/svg" p-id="3365" xmlns:xlink="http://www.w3.org/1999/xlink" width="200" height="200"><path d="M855.76866 464.034c0-189.848-153.906-343.754-343.754-343.754-189.85 0-343.756 153.906-343.756 343.754 0 122.132 63.876 229.056 159.886 289.966v21.812h368.11V753.78c95.792-60.972 159.514-167.77 159.514-289.746z" fill="#FFCE54" p-id="3366"></path><path d="M551.50066 359.43c0 35.334-32.226 63.954-71.948 63.954-39.738 0-71.948-28.62-71.948-63.954s32.21-63.956 71.948-63.956c39.722 0 71.948 28.62 71.948 63.956zM707.21666 273.318c-9.368 9.37-32.274 1.64-51.166-17.268-18.908-18.892-26.636-41.814-17.286-51.182 9.37-9.352 32.29-1.638 51.2 17.27 18.894 18.892 26.606 41.812 17.252 51.18zM700.27066 611.118c-7.728-7.714-5.214-22.766 5.59-33.57 10.82-10.836 25.856-13.334 33.586-5.622 7.728 7.744 5.23 22.766-5.574 33.632-10.836 10.774-25.874 13.272-33.602 5.56zM311.67266 495.332c0 13.256-10.726 23.998-23.982 23.998-13.242 0-23.984-10.742-23.984-23.998 0-13.24 10.742-23.982 23.984-23.982 13.256 0 23.982 10.742 23.982 23.982zM487.54666 679.194c0 8.838-10.728 16.02-23.984 16.02-13.242 0-23.984-7.182-23.984-16.02 0-8.806 10.742-15.988 23.984-15.988 13.258 0 23.984 7.18 23.984 15.988z" fill="#F6BB42" p-id="3367"></path><path d="M551.50066 359.43c0 35.334-32.226 63.954-71.948 63.954-39.738 0-71.948-28.62-71.948-63.954s32.21-63.956 71.948-63.956c39.722 0 71.948 28.62 71.948 63.956zM707.21666 273.318c-9.368 9.37-32.274 1.64-51.166-17.268-18.908-18.892-26.636-41.814-17.286-51.182 9.37-9.352 32.29-1.638 51.2 17.27 18.894 18.892 26.606 41.812 17.252 51.18zM700.27066 611.118c-7.728-7.714-5.214-22.766 5.59-33.57 10.82-10.836 25.856-13.334 33.586-5.622 7.728 7.744 5.23 22.766-5.574 33.632-10.836 10.774-25.874 13.272-33.602 5.56zM311.67266 495.332c0 13.256-10.726 23.998-23.982 23.998-13.242 0-23.984-10.742-23.984-23.998 0-13.24 10.742-23.982 23.984-23.982 13.256 0 23.982 10.742 23.982 23.982zM487.54666 679.194c0 8.838-10.728 16.02-23.984 16.02-13.242 0-23.984-7.182-23.984-16.02 0-8.806 10.742-15.988 23.984-15.988 13.258 0 23.984 7.18 23.984 15.988z" opacity=".1" p-id="3368"></path><path d="M695.88266 935.698l-47.966 47.966H376.09466l-47.95-47.966v-159.886h367.738z" fill="#AAB2BD" p-id="3369"></path><path d="M360.12266 775.812h-31.978v159.886l47.95 47.966h31.978l-47.95-47.966z" fill="#FFFFFF" opacity=".4" p-id="3370"></path><path d="M663.88866 775.812h31.98v159.886l-47.952 47.966H615.94066l47.948-47.966z" opacity=".3" p-id="3371"></path><path d="M216.22466 464.034c0-181.752 141.148-330.178 319.772-342.544-7.962-0.546-15.894-1.21-23.982-1.21-189.85 0-343.756 153.906-343.756 343.754 0 122.132 63.876 229.056 159.886 289.966 0 0-111.92-94.106-111.92-289.966z" fill="#FFFFFF" opacity=".5" p-id="3372"></path><path d="M809.37866 464.034c0-181.752-141.164-330.178-319.772-342.544 7.948-0.546 15.878-1.21 23.982-1.21 189.85 0 343.754 153.906 343.754 343.754 0 122.132-63.89 229.056-159.884 289.966 0 0 111.92-94.106 111.92-289.966zM439.58066 359.43c0-30.432 23.952-55.766 55.96-62.246-5.154-1.046-10.478-1.71-15.99-1.71-39.738 0-71.948 28.62-71.948 63.956 0 35.334 32.21 63.954 71.948 63.954 5.512 0 10.836-0.664 15.99-1.708-32.008-6.482-55.96-31.816-55.96-62.246z" opacity=".2" p-id="3373"></path><path d="M672.04066 256.05c-18.908-18.892-26.636-41.814-17.286-51.182 1.094-1.084 2.39-1.88 3.81-2.522-8.292-2.318-15.504-1.764-19.798 2.522-9.352 9.37-1.624 32.29 17.286 51.182 16.708 16.722 36.522 24.646 47.358 19.79-9.792-2.748-21.144-9.554-31.37-19.79zM716.25866 611.118c-7.728-7.714-5.214-22.766 5.59-33.57 4.012-4.012 8.604-6.872 13.194-8.51-8.212-3.67-20.142-0.546-29.182 8.51-10.804 10.804-13.318 25.856-5.59 33.57 4.872 4.856 12.63 5.652 20.422 2.888-1.624-0.718-3.152-1.61-4.434-2.888zM279.69466 495.332c0-10.422 6.698-19.212 15.99-22.516-2.514-0.89-5.168-1.466-7.994-1.466-13.242 0-23.984 10.742-23.984 23.982 0 13.256 10.742 23.998 23.984 23.998 2.826 0 5.48-0.576 7.994-1.466-9.292-3.304-15.99-12.094-15.99-22.532zM455.56866 679.194c0-6.932 6.7-12.802 15.99-15.006a34.554 34.554 0 0 0-7.994-0.982c-13.242 0-23.984 7.182-23.984 15.988 0 8.838 10.742 16.02 23.984 16.02 2.826 0 5.48-0.39 7.994-0.984-9.29-2.202-15.99-8.074-15.99-15.036z" opacity=".2" p-id="3374"></path><path d="M512.01466 24.348h71.948v31.978h-71.948zM663.90466 88.302h-112.92l31.978-31.976h80.942l-15.988 15.988z" fill="#ED5565" p-id="3375"></path><path d="M424.07666 983.664s23.982 31.976 87.938 31.976c63.954 0 87.936-31.976 87.936-31.976h-175.874z" fill="#656D78" p-id="3376"></path><path d="M456.05266 983.664h-31.976s23.982 31.976 87.938 31.976c5.666 0 10.93-0.328 15.988-0.782-51.932-4.714-71.95-31.194-71.95-31.194z" fill="#FFFFFF" opacity=".4" p-id="3377"></path><path d="M567.97266 983.664h31.976s-23.982 31.976-87.936 31.976c-5.684 0-10.93-0.328-15.99-0.782 51.92-4.714 71.95-31.194 71.95-31.194z" opacity=".3" p-id="3378"></path><path d="M46.40866 692.418c-37.504 0-42.376-11.758-44.578-17.066-3.716-8.992-15.05-36.378 130.392-122.318 3.826-2.232 8.712-0.984 10.946 2.826a7.994 7.994 0 0 1-2.81 10.946C8.37466 644.782 16.21066 668.28 16.60266 669.23c0.406 0.938 11.398 22.968 158.73-14.754 100.084-25.638 229.132-70.386 363.366-126.004 134.264-55.626 257.144-115.238 346.018-167.858 130.876-77.492 123.07-100.834 122.68-101.794-0.39-0.906-10.898-22.032-149.708 12.506-4.308 1.022-8.618-1.546-9.68-5.832s1.544-8.62 5.824-9.688c153.75-38.246 164.742-11.812 168.332-3.106 3.716 8.962 15.022 36.224-129.296 121.67-89.5 52.994-213.114 112.966-348.048 168.872-134.906 55.898-264.72 100.898-365.524 126.722-66.092 16.926-107.172 22.454-132.888 22.454zM616.40666 655.896c-4.402 0-8.07-3.574-8.07-7.994 0-4.418 3.496-7.994 7.914-7.994h0.156a7.99 7.99 0 0 1 7.996 7.994 7.99 7.99 0 0 1-7.996 7.994zM312.62466 304.14c-4.418 0-8.072-3.576-8.072-7.994 0-4.418 3.498-7.994 7.916-7.994h0.156a7.992 7.992 0 0 1 7.996 7.994 7.992 7.992 0 0 1-7.996 7.994z" fill="#3A3847" p-id="3379"></path><path d="M728.32866 400.08c-4.404 0-8.074-3.576-8.074-7.994 0-4.418 3.498-7.994 7.918-7.994h0.156a7.99 7.99 0 0 1 7.994 7.994 7.99 7.99 0 0 1-7.994 7.994z" fill="#3A3847" p-id="3380"></path><path d="M695.88266 783.804H328.14466a7.988 7.988 0 0 1-7.994-7.992v-17.316c-100.21-65.36-159.886-175.11-159.886-294.462 0-193.956 157.794-351.75 351.75-351.75s351.748 157.792 351.748 351.75c0 119.352-59.692 229.102-159.886 294.462v17.316a7.988 7.988 0 0 1-7.994 7.992z m-359.744-15.988h351.748v-13.676c0-2.734 1.39-5.278 3.702-6.746 97.79-62.114 156.186-168.052 156.186-283.36 0-185.142-150.626-335.76-335.76-335.76-185.15 0-335.76 150.62-335.76 335.76 0 115.308 58.38 221.248 156.168 283.36a7.996 7.996 0 0 1 3.716 6.746v13.676z" fill="#3A3847" p-id="3381"></path><path d="M647.91666 991.658H376.09466a7.992 7.992 0 0 1-5.652-2.342l-47.95-47.966a7.984 7.984 0 0 1-2.342-5.652v-159.884a7.99 7.99 0 0 1 7.994-7.996h367.738a7.988 7.988 0 0 1 7.992 7.996v159.884a7.988 7.988 0 0 1-2.34 5.652l-47.966 47.966a7.99 7.99 0 0 1-5.652 2.342z m-268.512-15.99h265.202l43.282-43.282v-148.582H336.13866v148.582l43.266 43.282z" fill="#3A3847" p-id="3382"></path><path d="M312.14066 847.76a8 8 0 0 1-7.962-7.354 7.996 7.996 0 0 1 7.338-8.604l399.714-31.976c4.496-0.296 8.244 2.936 8.604 7.322a7.986 7.986 0 0 1-7.322 8.604l-399.716 31.976a8.946 8.946 0 0 1-0.656 0.032zM312.14066 895.726a8 8 0 0 1-7.962-7.356 7.994 7.994 0 0 1 7.338-8.602l399.714-31.978c4.496-0.36 8.244 2.92 8.604 7.322a7.986 7.986 0 0 1-7.322 8.606l-399.716 31.976c-0.218 0.016-0.436 0.032-0.656 0.032zM312.14066 943.692a8 8 0 0 1-7.962-7.354 7.994 7.994 0 0 1 7.338-8.604l399.714-31.976c4.496-0.25 8.244 2.92 8.604 7.322a7.984 7.984 0 0 1-7.322 8.604L312.79666 943.66a8.946 8.946 0 0 1-0.656 0.032zM512.01466 1023.634c-67.188 0-93.262-33.742-94.34-35.178a7.986 7.986 0 0 1 1.608-11.196 7.992 7.992 0 0 1 11.148 1.56c0.968 1.25 23.014 28.824 81.584 28.824 58.628 0 80.66-27.652 81.566-28.824 2.686-3.482 7.712-4.152 11.196-1.498a7.958 7.958 0 0 1 1.56 11.132c-1.078 1.438-27.152 35.18-94.322 35.18zM512.01466 128.274a7.99 7.99 0 0 1-7.996-7.994V8.36a7.99 7.99 0 0 1 7.996-7.994 7.99 7.99 0 0 1 7.994 7.994v111.92a7.99 7.99 0 0 1-7.994 7.994z" fill="#3A3847" p-id="3383"></path><path d="M583.96066 32.342h-71.948a7.99 7.99 0 0 1-7.996-7.994 7.99 7.99 0 0 1 7.996-7.994h71.948a7.99 7.99 0 0 1 7.996 7.994 7.99 7.99 0 0 1-7.996 7.994zM583.96066 64.32h-71.948c-4.42 0-7.996-3.576-7.996-7.994s3.576-7.994 7.996-7.994h71.948c4.42 0 7.996 3.576 7.996 7.994s-3.576 7.994-7.996 7.994z" fill="#3A3847" p-id="3384"></path><path d="M583.96066 64.32a7.99 7.99 0 0 1-7.994-7.994V24.348a7.99 7.99 0 0 1 7.994-7.994 7.99 7.99 0 0 1 7.996 7.994v31.978a7.99 7.99 0 0 1-7.996 7.994z" fill="#3A3847" p-id="3385"></path><path d="M551.98466 96.296a7.978 7.978 0 0 1-5.652-2.342 7.988 7.988 0 0 1 0-11.304l31.976-31.978a7.992 7.992 0 1 1 11.304 11.304l-31.976 31.978a7.966 7.966 0 0 1-5.652 2.342z" fill="#3A3847" p-id="3386"></path><path d="M663.90466 96.296h-111.92a7.99 7.99 0 0 1-7.994-7.994 7.99 7.99 0 0 1 7.994-7.994h111.92a7.988 7.988 0 0 1 7.994 7.994 7.988 7.988 0 0 1-7.994 7.994zM663.90466 64.32h-63.956c-4.418 0-7.992-3.576-7.992-7.994s3.574-7.994 7.992-7.994h63.956c4.42 0 7.994 3.576 7.994 7.994s-3.574 7.994-7.994 7.994z" fill="#3A3847" p-id="3387"></path><path d="M663.90466 96.296a7.978 7.978 0 0 1-5.652-2.342l-15.988-15.99a7.988 7.988 0 0 1 0-11.304l15.988-15.99a7.992 7.992 0 1 1 11.304 11.304l-10.336 10.336 10.336 10.336a7.988 7.988 0 0 1 0 11.304 7.95 7.95 0 0 1-5.652 2.346z" fill="#3A3847" p-id="3388"></path><path d="M480.03666 432.056c-44.078 0-79.944-32.274-79.944-71.948s35.866-71.948 79.944-71.948 79.942 32.274 79.942 71.948-35.864 71.948-79.942 71.948z m0-127.908c-35.272 0-63.954 25.108-63.954 55.96s28.682 55.96 63.954 55.96c35.256 0 63.954-25.108 63.954-55.96s-28.698-55.96-63.954-55.96z" fill="#3A3847" p-id="3389"></path><path d="M696.63066 285.974c-13.678 0-31.21-9.04-45.748-23.592-22.734-22.718-30.182-49.582-17.3-62.478 12.492-12.484 40.752-4.528 62.52 17.262 22.716 22.718 30.132 49.582 17.252 62.478-4.14 4.144-9.914 6.33-16.724 6.33z m-46.326-76.406c-1.716 0-4.058 0.28-5.418 1.64-4.48 4.496 0.11 22.702 17.3 39.87 13.052 13.062 26.7 18.91 34.444 18.91 1.716 0 4.06-0.282 5.418-1.64 4.498-4.504-0.094-22.71-17.252-39.878-13.07-13.056-26.732-18.902-34.492-18.902z" fill="#3A3847" p-id="3390"></path><path d="M712.52866 624.28c-6.84 0-13.024-2.42-17.426-6.822-11.008-11.008-8.556-30.728 5.574-44.89 13.522-13.538 34.302-16.192 44.888-5.606 11.008 11.008 8.556 30.742-5.542 44.906-7.932 7.898-17.94 12.412-27.494 12.412z m15.644-48.154c-5.292 0-11.336 2.906-16.176 7.746-8.214 8.212-9.542 18.33-5.59 22.282 1.764 1.764 4.292 2.138 6.122 2.138 5.278 0 11.318-2.888 16.176-7.728 8.18-8.214 9.508-18.348 5.558-22.296-1.766-1.768-4.28-2.142-6.09-2.142z" fill="#3A3847" p-id="3391"></path><path d="M288.17266 528.004c-17.644 0-31.978-14.35-31.978-31.992 0-17.636 14.334-31.978 31.978-31.978 17.628 0 31.978 14.34 31.978 31.978 0 17.642-14.35 31.992-31.978 31.992z m0-47.98c-8.822 0-15.99 7.174-15.99 15.988 0 8.822 7.168 16.004 15.99 16.004 8.806 0 15.99-7.182 15.99-16.004 0-8.814-7.184-15.988-15.99-15.988z" fill="#3A3847" p-id="3392"></path><path d="M464.04666 703.878c-17.94 0-31.976-10.54-31.976-24 0-13.442 14.038-23.982 31.976-23.982 17.926 0 31.978 10.542 31.978 23.982 0 13.462-14.052 24-31.978 24z m0-31.992c-9.618 0-15.988 4.808-15.988 7.992 0 3.266 6.23 8.012 15.988 8.012 9.76 0 15.99-4.746 15.99-8.012 0-3.182-6.386-7.992-15.99-7.992z" fill="#3A3847" p-id="3393"></path></svg>