<svg xmlns="http://www.w3.org/2000/svg" xmlns:xlink="http://www.w3.org/1999/xlink" viewBox="0 0 456.01 262.12"><defs><style>.cls-1,.cls-2,.cls-23,.cls-24,.cls-25,.cls-3,.cls-4,.cls-5,.cls-6{fill:none;stroke-miterlimit:10;}.cls-1,.cls-2,.cls-3,.cls-4,.cls-5,.cls-6{stroke-width:2px;}.cls-1{stroke:url(#未命名的渐变_26);}.cls-2{stroke:url(#未命名的渐变_26-2);}.cls-3{stroke:url(#未命名的渐变_26-3);}.cls-4{stroke:url(#未命名的渐变_26-4);}.cls-5{stroke:url(#未命名的渐变_26-5);}.cls-6{stroke:url(#未命名的渐变_26-6);}.cls-10,.cls-11,.cls-12,.cls-7,.cls-9{opacity:0.4;}.cls-7{fill:url(#未命名的渐变_26-7);}.cls-8{opacity:0.7;}.cls-9{fill:url(#未命名的渐变_26-8);}.cls-10{fill:url(#未命名的渐变_26-9);}.cls-11{fill:url(#未命名的渐变_26-10);}.cls-12{fill:url(#未命名的渐变_26-11);}.cls-13{fill:url(#未命名的渐变_5);}.cls-14{fill:#2d8ce9;}.cls-15,.cls-27{fill:#53bef5;}.cls-16{opacity:0.51;fill:url(#未命名的渐变_33);}.cls-17{fill:#ebfcff;}.cls-18{fill:#ffb056;}.cls-19{fill:#398eed;}.cls-20{fill:#e49056;}.cls-21{fill:#fae6d2;}.cls-22{fill:#ffeed2;}.cls-23{stroke:#e49056;stroke-width:0.23px;}.cls-24{stroke:#3972d9;stroke-width:0.25px;}.cls-25{stroke:#4986d9;stroke-width:0.1px;}.cls-26{fill:#e55c5c;opacity:0.2;}.cls-27{font-size:23.38px;font-family:ArialRoundedMTBold, Arial Rounded MT Bold;}</style><linearGradient id="未命名的渐变_26" x1="1" y1="91.35" x2="1" y2="181.12" gradientUnits="userSpaceOnUse"><stop offset="0" stop-color="#81cfff"/><stop offset="1" stop-color="#5ecfff" stop-opacity="0"/></linearGradient><linearGradient id="未命名的渐变_26-2" x1="455.01" y1="72.11" x2="455.01" y2="161.88" xlink:href="#未命名的渐变_26"/><linearGradient id="未命名的渐变_26-3" x1="40.9" y1="143.88" x2="40.9" y2="199.51" xlink:href="#未命名的渐变_26"/><linearGradient id="未命名的渐变_26-4" x1="64.97" y1="95.36" x2="64.97" y2="123.17" xlink:href="#未命名的渐变_26"/><linearGradient id="未命名的渐变_26-5" x1="397.23" y1="104.2" x2="397.23" y2="132.02" xlink:href="#未命名的渐变_26"/><linearGradient id="未命名的渐变_26-6" x1="424.75" y1="133.49" x2="424.75" y2="189.13" xlink:href="#未命名的渐变_26"/><linearGradient id="未命名的渐变_26-7" x1="232.75" y1="224.43" x2="232.75" y2="262.12" xlink:href="#未命名的渐变_26"/><linearGradient id="未命名的渐变_26-8" x1="349.36" y1="26.68" x2="349.36" y2="204.03" xlink:href="#未命名的渐变_26"/><linearGradient id="未命名的渐变_26-9" x1="201.45" y1="55.61" x2="201.45" y2="204.03" xlink:href="#未命名的渐变_26"/><linearGradient id="未命名的渐变_26-10" x1="122.98" y1="26.68" x2="122.98" y2="204.03" xlink:href="#未命名的渐变_26"/><linearGradient id="未命名的渐变_26-11" x1="273.51" y1="0" x2="273.51" y2="209.54" xlink:href="#未命名的渐变_26"/><linearGradient id="未命名的渐变_5" x1="-891.25" y1="-852.32" x2="-881.19" y2="-852.32" gradientTransform="matrix(0.67, -0.74, 0.74, 0.67, 1505.1, 63.23)" gradientUnits="userSpaceOnUse"><stop offset="0" stop-color="#2d8ce9"/><stop offset="0.36" stop-color="#4db3ff"/><stop offset="0.97" stop-color="#2d8ce9"/></linearGradient><linearGradient id="未命名的渐变_33" x1="-865.08" y1="-941.93" x2="-910.4" y2="-915.77" gradientTransform="matrix(0.67, -0.74, 0.74, 0.67, 1505.1, 63.23)" gradientUnits="userSpaceOnUse"><stop offset="0" stop-color="#4db3ff"/><stop offset="0.26" stop-color="#59ceff"/><stop offset="0.49" stop-color="#4db3ff"/><stop offset="0.75" stop-color="#59ceff"/><stop offset="1" stop-color="#4db3ff"/></linearGradient></defs><title>未搜索到相关内容</title><g id="图层_2" data-name="图层 2"><g id="图层_1-2" data-name="图层 1"><line class="cls-1" x1="1" y1="91.35" x2="1" y2="181.12"/><line class="cls-2" x1="455.01" y1="72.11" x2="455.01" y2="161.88"/><line class="cls-3" x1="40.9" y1="143.88" x2="40.9" y2="199.51"/><line class="cls-4" x1="64.97" y1="95.36" x2="64.97" y2="123.17"/><line class="cls-5" x1="397.23" y1="104.2" x2="397.23" y2="132.02"/><line class="cls-6" x1="424.75" y1="133.49" x2="424.75" y2="189.13"/><path class="cls-7" d="M412.28,262.12c-23-23-61-37.69-179.53-37.69S76.24,239.1,53.21,262.12Z"/><g class="cls-8"><path class="cls-9" d="M380.66,26.68H318.07a2.71,2.71,0,0,0-2.82,2.59V201.44a2.71,2.71,0,0,0,2.82,2.59h62.59a2.72,2.72,0,0,0,2.82-2.59V29.27A2.72,2.72,0,0,0,380.66,26.68ZM328.3,147a.9.9,0,0,1-.95.87h-3.6a.9.9,0,0,1-.95-.87V127.27a.91.91,0,0,1,.95-.87h3.6a.91.91,0,0,1,.95.87Zm0-30.23a.91.91,0,0,1-.95.87h-3.6a.91.91,0,0,1-.95-.87V97a.91.91,0,0,1,.95-.87h3.6a.91.91,0,0,1,.95.87Zm0-30.24a.91.91,0,0,1-.95.87h-3.6a.91.91,0,0,1-.95-.87V66.8a.91.91,0,0,1,.95-.87h3.6a.91.91,0,0,1,.95.87Zm0-30.24a.91.91,0,0,1-.95.87h-3.6a.91.91,0,0,1-.95-.87V36.56a.91.91,0,0,1,.95-.87h3.6a.91.91,0,0,1,.95.87ZM340,147a.9.9,0,0,1-.94.87h-3.61a.91.91,0,0,1-.95-.87V127.27a.92.92,0,0,1,.95-.87h3.61a.91.91,0,0,1,.94.87Zm0-30.23a.91.91,0,0,1-.94.87h-3.61a.92.92,0,0,1-.95-.87V97a.92.92,0,0,1,.95-.87h3.61A.91.91,0,0,1,340,97Zm0-30.24a.91.91,0,0,1-.94.87h-3.61a.92.92,0,0,1-.95-.87V66.8a.92.92,0,0,1,.95-.87h3.61a.91.91,0,0,1,.94.87Zm0-30.24a.91.91,0,0,1-.94.87h-3.61a.92.92,0,0,1-.95-.87V36.56a.92.92,0,0,1,.95-.87h3.61a.91.91,0,0,1,.94.87ZM351.7,147a.9.9,0,0,1-.94.87h-3.61a.9.9,0,0,1-.94-.87V127.27a.91.91,0,0,1,.94-.87h3.61a.91.91,0,0,1,.94.87Zm0-30.23a.91.91,0,0,1-.94.87h-3.61a.91.91,0,0,1-.94-.87V97a.91.91,0,0,1,.94-.87h3.61a.91.91,0,0,1,.94.87Zm0-30.24a.91.91,0,0,1-.94.87h-3.61a.91.91,0,0,1-.94-.87V66.8a.91.91,0,0,1,.94-.87h3.61a.91.91,0,0,1,.94.87Zm0-30.24a.91.91,0,0,1-.94.87h-3.61a.91.91,0,0,1-.94-.87V36.56a.91.91,0,0,1,.94-.87h3.61a.91.91,0,0,1,.94.87ZM363.4,147a.9.9,0,0,1-.94.87h-3.61a.9.9,0,0,1-.94-.87V127.27a.91.91,0,0,1,.94-.87h3.61a.91.91,0,0,1,.94.87Zm0-30.23a.91.91,0,0,1-.94.87h-3.61a.91.91,0,0,1-.94-.87V97a.91.91,0,0,1,.94-.87h3.61a.91.91,0,0,1,.94.87Zm0-30.24a.91.91,0,0,1-.94.87h-3.61a.91.91,0,0,1-.94-.87V66.8a.91.91,0,0,1,.94-.87h3.61a.91.91,0,0,1,.94.87Zm0-30.24a.91.91,0,0,1-.94.87h-3.61a.91.91,0,0,1-.94-.87V36.56a.91.91,0,0,1,.94-.87h3.61a.91.91,0,0,1,.94.87ZM375.11,147a.91.91,0,0,1-.95.87h-3.61a.9.9,0,0,1-.94-.87V127.27a.91.91,0,0,1,.94-.87h3.61a.92.92,0,0,1,.95.87Zm0-30.23a.92.92,0,0,1-.95.87h-3.61a.91.91,0,0,1-.94-.87V97a.91.91,0,0,1,.94-.87h3.61a.92.92,0,0,1,.95.87Zm0-30.24a.92.92,0,0,1-.95.87h-3.61a.91.91,0,0,1-.94-.87V66.8a.91.91,0,0,1,.94-.87h3.61a.92.92,0,0,1,.95.87Zm0-30.24a.92.92,0,0,1-.95.87h-3.61a.91.91,0,0,1-.94-.87V36.56a.91.91,0,0,1,.94-.87h3.61a.92.92,0,0,1,.95.87Z"/><path class="cls-10" d="M231.1,55.61H171.8A2.71,2.71,0,0,0,169,58.2V201.44A2.71,2.71,0,0,0,171.8,204h59.3a2.71,2.71,0,0,0,2.82-2.59V58.2A2.71,2.71,0,0,0,231.1,55.61ZM182.47,159.37a1.16,1.16,0,0,1-1.2,1.11h-5.4a1.16,1.16,0,0,1-1.2-1.11v-5.22a1.15,1.15,0,0,1,1.2-1.1h5.4a1.15,1.15,0,0,1,1.2,1.1Zm0-12.88a1.15,1.15,0,0,1-1.2,1.1h-5.4a1.15,1.15,0,0,1-1.2-1.1v-5.22a1.16,1.16,0,0,1,1.2-1.11h5.4a1.16,1.16,0,0,1,1.2,1.11Zm0-12.89a1.16,1.16,0,0,1-1.2,1.11h-5.4a1.16,1.16,0,0,1-1.2-1.11v-5.22a1.15,1.15,0,0,1,1.2-1.1h5.4a1.15,1.15,0,0,1,1.2,1.1Zm0-12.88a1.15,1.15,0,0,1-1.2,1.1h-5.4a1.15,1.15,0,0,1-1.2-1.1V115.5a1.16,1.16,0,0,1,1.2-1.11h5.4a1.16,1.16,0,0,1,1.2,1.11Zm0-12.89a1.16,1.16,0,0,1-1.2,1.11h-5.4a1.16,1.16,0,0,1-1.2-1.11v-5.21a1.15,1.15,0,0,1,1.2-1.11h5.4a1.15,1.15,0,0,1,1.2,1.11Zm0-12.88a1.15,1.15,0,0,1-1.2,1.1h-5.4a1.15,1.15,0,0,1-1.2-1.1V89.73a1.16,1.16,0,0,1,1.2-1.11h5.4a1.16,1.16,0,0,1,1.2,1.11Zm0-12.89a1.16,1.16,0,0,1-1.2,1.11h-5.4a1.16,1.16,0,0,1-1.2-1.11V76.85a1.15,1.15,0,0,1,1.2-1.11h5.4a1.15,1.15,0,0,1,1.2,1.11Zm0-12.88a1.15,1.15,0,0,1-1.2,1.1h-5.4a1.15,1.15,0,0,1-1.2-1.1V64a1.16,1.16,0,0,1,1.2-1.11h5.4a1.16,1.16,0,0,1,1.2,1.11Zm10.08,90.19a1.16,1.16,0,0,1-1.2,1.11H186a1.16,1.16,0,0,1-1.21-1.11v-5.22a1.16,1.16,0,0,1,1.21-1.1h5.4a1.15,1.15,0,0,1,1.2,1.1Zm0-12.88a1.15,1.15,0,0,1-1.2,1.1H186a1.16,1.16,0,0,1-1.21-1.1v-5.22a1.16,1.16,0,0,1,1.21-1.11h5.4a1.16,1.16,0,0,1,1.2,1.11Zm0-12.89a1.16,1.16,0,0,1-1.2,1.11H186a1.16,1.16,0,0,1-1.21-1.11v-5.22a1.16,1.16,0,0,1,1.21-1.1h5.4a1.15,1.15,0,0,1,1.2,1.1Zm0-12.88a1.15,1.15,0,0,1-1.2,1.1H186a1.16,1.16,0,0,1-1.21-1.1V115.5a1.16,1.16,0,0,1,1.21-1.11h5.4a1.16,1.16,0,0,1,1.2,1.11Zm0-12.89a1.16,1.16,0,0,1-1.2,1.11H186a1.16,1.16,0,0,1-1.21-1.11v-5.21a1.16,1.16,0,0,1,1.21-1.11h5.4a1.15,1.15,0,0,1,1.2,1.11Zm0-12.88a1.15,1.15,0,0,1-1.2,1.1H186a1.16,1.16,0,0,1-1.21-1.1V89.73A1.16,1.16,0,0,1,186,88.62h5.4a1.16,1.16,0,0,1,1.2,1.11Zm0-12.89a1.16,1.16,0,0,1-1.2,1.11H186a1.16,1.16,0,0,1-1.21-1.11V76.85A1.16,1.16,0,0,1,186,75.74h5.4a1.15,1.15,0,0,1,1.2,1.11Zm0-12.88a1.15,1.15,0,0,1-1.2,1.1H186a1.16,1.16,0,0,1-1.21-1.1V64A1.16,1.16,0,0,1,186,62.85h5.4a1.16,1.16,0,0,1,1.2,1.11Zm10.08,90.19a1.16,1.16,0,0,1-1.21,1.11H196a1.16,1.16,0,0,1-1.2-1.11v-5.22a1.15,1.15,0,0,1,1.2-1.1h5.4a1.16,1.16,0,0,1,1.21,1.1Zm0-12.88a1.16,1.16,0,0,1-1.21,1.1H196a1.15,1.15,0,0,1-1.2-1.1v-5.22a1.16,1.16,0,0,1,1.2-1.11h5.4a1.16,1.16,0,0,1,1.21,1.11Zm0-12.89a1.16,1.16,0,0,1-1.21,1.11H196a1.16,1.16,0,0,1-1.2-1.11v-5.22a1.15,1.15,0,0,1,1.2-1.1h5.4a1.16,1.16,0,0,1,1.21,1.1Zm0-12.88a1.16,1.16,0,0,1-1.21,1.1H196a1.15,1.15,0,0,1-1.2-1.1V115.5a1.16,1.16,0,0,1,1.2-1.11h5.4a1.16,1.16,0,0,1,1.21,1.11Zm0-12.89a1.16,1.16,0,0,1-1.21,1.11H196a1.16,1.16,0,0,1-1.2-1.11v-5.21a1.15,1.15,0,0,1,1.2-1.11h5.4a1.16,1.16,0,0,1,1.21,1.11Zm0-12.88a1.16,1.16,0,0,1-1.21,1.1H196a1.15,1.15,0,0,1-1.2-1.1V89.73a1.16,1.16,0,0,1,1.2-1.11h5.4a1.16,1.16,0,0,1,1.21,1.11Zm0-12.89a1.16,1.16,0,0,1-1.21,1.11H196a1.16,1.16,0,0,1-1.2-1.11V76.85a1.15,1.15,0,0,1,1.2-1.11h5.4a1.16,1.16,0,0,1,1.21,1.11Zm0-12.88a1.16,1.16,0,0,1-1.21,1.1H196a1.15,1.15,0,0,1-1.2-1.1V64a1.16,1.16,0,0,1,1.2-1.11h5.4A1.16,1.16,0,0,1,202.63,64Zm25.21,90.19a1.16,1.16,0,0,1-1.2,1.11H206.1a1.16,1.16,0,0,1-1.2-1.11v-5.22a1.15,1.15,0,0,1,1.2-1.1h20.54a1.15,1.15,0,0,1,1.2,1.1Zm0-12.88a1.15,1.15,0,0,1-1.2,1.1H206.1a1.15,1.15,0,0,1-1.2-1.1v-5.22a1.16,1.16,0,0,1,1.2-1.11h20.54a1.16,1.16,0,0,1,1.2,1.11Zm0-12.89a1.16,1.16,0,0,1-1.2,1.11H206.1a1.16,1.16,0,0,1-1.2-1.11v-5.22a1.15,1.15,0,0,1,1.2-1.1h20.54a1.15,1.15,0,0,1,1.2,1.1Zm0-12.88a1.15,1.15,0,0,1-1.2,1.1H206.1a1.15,1.15,0,0,1-1.2-1.1V115.5a1.16,1.16,0,0,1,1.2-1.11h20.54a1.16,1.16,0,0,1,1.2,1.11Zm0-12.89a1.16,1.16,0,0,1-1.2,1.11H206.1a1.16,1.16,0,0,1-1.2-1.11v-5.21a1.15,1.15,0,0,1,1.2-1.11h20.54a1.15,1.15,0,0,1,1.2,1.11Zm0-12.88a1.15,1.15,0,0,1-1.2,1.1H206.1a1.15,1.15,0,0,1-1.2-1.1V89.73a1.16,1.16,0,0,1,1.2-1.11h20.54a1.16,1.16,0,0,1,1.2,1.11Zm0-12.89a1.16,1.16,0,0,1-1.2,1.11H206.1a1.16,1.16,0,0,1-1.2-1.11V76.85a1.15,1.15,0,0,1,1.2-1.11h20.54a1.15,1.15,0,0,1,1.2,1.11Zm0-12.88a1.15,1.15,0,0,1-1.2,1.1H206.1a1.15,1.15,0,0,1-1.2-1.1V64a1.16,1.16,0,0,1,1.2-1.11h20.54a1.16,1.16,0,0,1,1.2,1.11Z"/><path class="cls-11" d="M161.13,26.68H84.83A2.71,2.71,0,0,0,82,29.27V201.44A2.71,2.71,0,0,0,84.83,204h76.3a2.71,2.71,0,0,0,2.82-2.59V29.27A2.71,2.71,0,0,0,161.13,26.68ZM154.34,161a1.16,1.16,0,0,1-1.2,1.11H92.83A1.16,1.16,0,0,1,91.62,161v-5.21a1.16,1.16,0,0,1,1.21-1.11h60.31a1.15,1.15,0,0,1,1.2,1.11Zm0-14.67a1.15,1.15,0,0,1-1.2,1.1H92.83a1.16,1.16,0,0,1-1.21-1.1v-5.22A1.16,1.16,0,0,1,92.83,140h60.31a1.16,1.16,0,0,1,1.2,1.11Zm0-14.68a1.16,1.16,0,0,1-1.2,1.11H92.83a1.16,1.16,0,0,1-1.21-1.11v-5.22a1.16,1.16,0,0,1,1.21-1.1h60.31a1.15,1.15,0,0,1,1.2,1.1Zm0-14.68a1.16,1.16,0,0,1-1.2,1.11H92.83a1.16,1.16,0,0,1-1.21-1.11v-5.21a1.16,1.16,0,0,1,1.21-1.11h60.31a1.15,1.15,0,0,1,1.2,1.11Zm0-14.67a1.15,1.15,0,0,1-1.2,1.1H92.83a1.16,1.16,0,0,1-1.21-1.1V97a1.16,1.16,0,0,1,1.21-1.11h60.31a1.16,1.16,0,0,1,1.2,1.11Zm0-14.68a1.16,1.16,0,0,1-1.2,1.11H92.83a1.16,1.16,0,0,1-1.21-1.11V82.35a1.16,1.16,0,0,1,1.21-1.1h60.31a1.15,1.15,0,0,1,1.2,1.1Zm0-14.68a1.16,1.16,0,0,1-1.2,1.11H92.83a1.16,1.16,0,0,1-1.21-1.11V67.68a1.16,1.16,0,0,1,1.21-1.11h60.31a1.15,1.15,0,0,1,1.2,1.11Zm0-14.67a1.15,1.15,0,0,1-1.2,1.1H92.83a1.16,1.16,0,0,1-1.21-1.1V53a1.16,1.16,0,0,1,1.21-1.11h60.31a1.16,1.16,0,0,1,1.2,1.11Zm0-14.68a1.16,1.16,0,0,1-1.2,1.11H92.83a1.16,1.16,0,0,1-1.21-1.11V38.32a1.16,1.16,0,0,1,1.21-1.1h60.31a1.15,1.15,0,0,1,1.2,1.1Z"/><path class="cls-12" d="M306.21,0H240.82a2.51,2.51,0,0,0-2.42,2.59V206.94a2.51,2.51,0,0,0,2.42,2.6h65.39a2.51,2.51,0,0,0,2.41-2.6V2.59A2.51,2.51,0,0,0,306.21,0Zm-5.82,134.28a1.06,1.06,0,0,1-1,1.1H247.67a1.06,1.06,0,0,1-1-1.1v-5.22a1.07,1.07,0,0,1,1-1.11h51.69a1.07,1.07,0,0,1,1,1.11Zm0-14.68a1.07,1.07,0,0,1-1,1.11H247.67a1.07,1.07,0,0,1-1-1.11v-5.22a1.06,1.06,0,0,1,1-1.1h51.69a1.06,1.06,0,0,1,1,1.1Zm0-14.68a1.07,1.07,0,0,1-1,1.11H247.67a1.07,1.07,0,0,1-1-1.11V99.71a1.07,1.07,0,0,1,1-1.11h51.69a1.07,1.07,0,0,1,1,1.11Zm0-14.67a1.06,1.06,0,0,1-1,1.1H247.67a1.06,1.06,0,0,1-1-1.1V85a1.07,1.07,0,0,1,1-1.11h51.69a1.07,1.07,0,0,1,1,1.11Zm0-14.68a1.07,1.07,0,0,1-1,1.11H247.67a1.07,1.07,0,0,1-1-1.11V70.35a1.06,1.06,0,0,1,1-1.1h51.69a1.06,1.06,0,0,1,1,1.1Zm0-14.68a1.07,1.07,0,0,1-1,1.11H247.67a1.07,1.07,0,0,1-1-1.11V55.68a1.07,1.07,0,0,1,1-1.11h51.69a1.07,1.07,0,0,1,1,1.11Zm0-14.67a1.06,1.06,0,0,1-1,1.1H247.67a1.06,1.06,0,0,1-1-1.1V41a1.07,1.07,0,0,1,1-1.11h51.69a1.07,1.07,0,0,1,1,1.11Zm0-14.68a1.07,1.07,0,0,1-1,1.11H247.67a1.07,1.07,0,0,1-1-1.11V26.32a1.06,1.06,0,0,1,1-1.1h51.69a1.06,1.06,0,0,1,1,1.1Zm0-14.68a1.07,1.07,0,0,1-1,1.11H247.67a1.07,1.07,0,0,1-1-1.11V11.65a1.07,1.07,0,0,1,1-1.11h51.69a1.07,1.07,0,0,1,1,1.11Z"/></g><path class="cls-13" d="M254.42,118.6l51.1,46.34a5,5,0,0,1,.35,7.11,5,5,0,0,1-3.48,1.63,5,5,0,0,1-3.63-1.29L247.66,126l-.1-.12a18.35,18.35,0,0,0,1.79-1.74l4.5-5c.19-.21.38-.43.55-.64Z"/><path class="cls-14" d="M195.43,66.23c10.36-11.43,31.84-8.83,48,5.8,15.85,14.37,20.64,35,11,46.55-.17.21-.36.43-.55.64l-4.5,5C259.72,112.75,255,91.63,238.9,77c-15.9-14.42-37-17.15-47.53-6.27h0Z"/><path class="cls-15" d="M201.38,118.37c-16.14-14.63-20.82-35.75-10.46-47.18l.45-.47C201.89,59.84,223,62.57,238.9,77c16.14,14.64,20.82,35.76,10.45,47.19a18.35,18.35,0,0,1-1.79,1.74C236.67,135.29,216.63,132.21,201.38,118.37Zm1.19-1.32c14.5,13.14,33.78,15.48,43.09,5.21a17.7,17.7,0,0,0,1.49-1.87l0,0c7.27-10.57,2.75-28.09-10.9-40.47S204.76,64.73,194.94,73l0,0a17.92,17.92,0,0,0-1.72,1.66C183.88,84.94,188.09,103.91,202.57,117.05Z"/><path class="cls-14" d="M193.19,74.68A17.92,17.92,0,0,1,194.91,73c-8.37,9.28-3.56,27.32,10.91,40.45s32.9,16.16,41.33,6.92a17.7,17.7,0,0,1-1.49,1.87c-9.31,10.27-28.59,7.93-43.09-5.21S183.88,84.94,193.19,74.68Z"/><path class="cls-16" d="M194.94,73c9.82-8.26,27.69-5.47,41.33,6.9s18.17,29.9,10.9,40.47l0,0c-8.43,9.24-26.85,6.21-41.33-6.92S186.54,82.3,194.91,73Z"/><path class="cls-17" d="M185,236.25c-1.28-.79-2.42-1.81-3.1-2.13-2.57-1.2-2.85-.47-3.93-1.2a.87.87,0,0,1-.41-.72c-.89,1.69,2,1.88,2.71,2a10.48,10.48,0,0,1,2.7,1.43A16.6,16.6,0,0,0,187,238a3.78,3.78,0,0,0,3.33-1.15c.34-.37.28-.76,0-1.26,0,.78-1.19,1.63-2.43,1.72S186.23,237,185,236.25Z"/><path class="cls-17" d="M192.79,233.21a.72.72,0,0,0,0,1.26,14.8,14.8,0,0,0,3.78.24c.77,0,3.17,0,3.94.11s8.3.5,8.45.28c-.05-.21.23-.79-.15-1,0,.11-.06.15-.18.16-.34,0-5.5-.21-6.95-.36s-6.43-.24-7.12-.19S192.82,233.73,192.79,233.21Z"/><path class="cls-18" d="M179.44,227.92c.15,1.09-.64,1.59-1.21,2.49a3.76,3.76,0,0,0-.72,1.79h0a.87.87,0,0,0,.41.72c1.08.73,1.36,0,3.93,1.2.68.32,1.82,1.34,3.1,2.13s1.71,1.17,3,1.07,2.43-.94,2.43-1.72-1.48-.78-2.38-1.3-3.39-3-4.27-3.67-.33-1-.06-1.31a.58.58,0,0,0-.18-.22A.74.74,0,0,0,183,229c-.17,0,.16.62-.69,1.05s-2.15-.5-2.3-.94a1.14,1.14,0,0,1,0-1A.36.36,0,0,0,179.44,227.92Z"/><path class="cls-18" d="M198.06,228.92v.33c0,.83-1.65.88-2.52.86a1.79,1.79,0,0,1-1.26-.59,4.21,4.21,0,0,1-.55-.68c-.39-.58-.73-.33-1.12-.11s.36.56.56,1.06-.42,2.89-.38,3.42,1.11.58,1.8.53,5.66,0,7.12.19,6.61.4,6.95.36c.12,0,.17,0,.18-.16a7.5,7.5,0,0,1,0-1.21c.16-1.08-1.7-.94-2.79-1a45.61,45.61,0,0,1-6.82-1.93c-.66-.27-.68-.76-.48-1.58-.69-.08-.74,0-.74.4Z"/><path class="cls-19" d="M190.26,187.75h0l.67,16,1,3.41s.2,17.72.29,20.25a4.7,4.7,0,0,0,2,.47c1.41.09,3.07-.17,3.84-.94h0a1.13,1.13,0,0,0,.24-.3l-.87-20.49-3.09-18.73C193.25,187.57,191.8,187.67,190.26,187.75Z"/><path class="cls-19" d="M190.93,203.77l-.67-16h0c-2.29.11-4.77.16-6.39.18l1.73,19.85s-4.45,15.83-5.23,18.53a.51.51,0,0,0,.07.24c.37.7,2,1.39,3.45,1.61a3.14,3.14,0,0,0,1.84-.11l5.36-20.37Z"/><path class="cls-20" d="M190.29,157.19s-.83-.17-.83,0a1.84,1.84,0,0,0,.39.6A3.46,3.46,0,0,0,190.29,157.19Z"/><path class="cls-20" d="M195.68,170.31s.41-.52.34-.65-1.57-3.5-1.83-4c0,.39,0,.8.06,1.21l1.17,2.84Z"/><path class="cls-18" d="M194.25,166.85c0-.41,0-.82-.06-1.21-.13-2.67-.25-4.88-.31-5.54l-.55-.26c-.82-.37-2.26-1-2.53-1.14a3.56,3.56,0,0,1-1-.87,1.84,1.84,0,0,1-.39-.6l-.52.53a12,12,0,0,0-3.19,4.66c-.89,2.36-4.2,20.72-3.27,25.52h1.39c1.62,0,4.1-.07,6.39-.18,1.54-.08,3-.18,4-.31a4.77,4.77,0,0,0,1.5-.35c-.43-1.62-1.25-8.57-1-9.38,0-.35-.05-1-.09-1.74l-2-3.41a10,10,0,0,0,2.75-2.87Z"/><path class="cls-21" d="M180,228.1a1.14,1.14,0,0,0,0,1c.15.44,1.45,1.37,2.3.94s.52-1,.69-1.05a.74.74,0,0,1,.44.09l.45-.94c-1.42-.22-3.08-.91-3.45-1.61Z"/><path class="cls-21" d="M194.17,227.91l.11,1.61a1.79,1.79,0,0,0,1.26.59c.87,0,2.51,0,2.52-.86v-.4L198,227c-.77.77-2.43,1-3.84.94Z"/><path class="cls-21" d="M212.17,173.91c-.28,0-1.95-.1-1.95-.1-.27.09-.53.16-.38.28a10.52,10.52,0,0,0,2.47.23c.36,0,.55-.47.64-.86s0-.7.45-.84l.14,0h0c-.38-.12-.84-.38-1-.08S212.45,173.89,212.17,173.91Z"/><path class="cls-21" d="M196.92,173.34l10.11.53c.14-.55,1.09-.46,1.53-.41s1.3-.72,1.69-.7a.45.45,0,0,1,.23.07c0-.13-.48-.31-.71-.25s-1,.62-1.32.61-1.52-.14-1.61.27l-10.09-.54Z"/><path class="cls-22" d="M190.29,157.19a3.46,3.46,0,0,1-.44.64,3.56,3.56,0,0,0,1,.87c.27.11,1.71.77,2.53,1.14a2.1,2.1,0,0,1,.55-1.87l-.11-.08-.39-.29a4.73,4.73,0,0,1-1.83-2.9l0-.2A9.61,9.61,0,0,1,190.29,157.19Z"/><path class="cls-22" d="M192.21,151.5a4.91,4.91,0,0,0-.69,3l0,.2a4.73,4.73,0,0,0,1.83,2.9l.39.29.11.08a3.83,3.83,0,0,0,1.13.55,3,3,0,0,0,3.13-1.13c.54-.25,1,.34,1.37-.29.38-.8-.38-1.64.31-3.15a4.19,4.19,0,0,0-1.67-4.77C196.22,148.09,193.56,149.12,192.21,151.5Z"/><path class="cls-22" d="M194.69,176l.4.67,12-.77c1.06,0,5.82.63,6.62-.39s1-1.58.7-2.14-.5-.8-.88-.75l-.14,0c-.47.14-.36.44-.45.84s-.28.89-.64.86a10.52,10.52,0,0,1-2.47-.23c-.15-.12.11-.19.38-.28s.45-.18.45-.35,0-.52-.19-.63a.45.45,0,0,0-.23-.07c-.39,0-1.25.74-1.69.7s-1.39-.14-1.53.41l-10.11-.53-.17-.42-1.07-2.61-.26-.62a10,10,0,0,1-2.75,2.87Z"/><path class="cls-23" d="M192.67,172.56a3.87,3.87,0,0,1-2,.78C189.79,171.62,188,168,188,168"/><line class="cls-23" x1="192.78" y1="163.29" x2="194.25" y2="166.85"/><line class="cls-24" x1="190.26" y1="187.75" x2="190.93" y2="203.77"/><path class="cls-25" d="M208.84,234.13c.38.18.1.76.15,1-.15.22-7.67-.2-8.45-.28s-3.17-.13-3.94-.11a14.8,14.8,0,0,1-3.78-.24.72.72,0,0,1,0-1.26"/><path class="cls-25" d="M190.33,235.6c.28.5.34.89,0,1.26A3.78,3.78,0,0,1,187,238a16.6,16.6,0,0,1-4.08-2.35,10.48,10.48,0,0,0-2.7-1.43c-.69-.15-3.6-.34-2.71-2h0"/><path d="M191.17,153.13c.26-.7.21-.75.19-.77a.24.24,0,0,1-.08-.19s0-.08,0-.14a3.29,3.29,0,0,1,.52-2.62,3.54,3.54,0,0,1,3.06-1.24,1.51,1.51,0,0,0,.38-.26c.37-.33.83-.73,2.26-.41s1.74,1.2,1.84,1.62c0,.07,0,.15,0,.16l.2,0a1.87,1.87,0,0,1,1.57,1,2.3,2.3,0,0,1,0,1.9.86.86,0,0,0-.08.35s.18.09.27.12c.25.08.6.18.73.48a1,1,0,0,1-.07.84.78.78,0,0,1-.86.5,1.07,1.07,0,0,1-.79-.47,1.1,1.1,0,0,1-.4.43.85.85,0,0,1-.67.11,1.9,1.9,0,0,1-1.19-1,1.51,1.51,0,0,1-1,.38h0a.76.76,0,0,1-.68-.37c-.08-.11-.13-.17-.22-.18s-.24.24-.33.44-.21.43-.37.47l-.13,0v-.14c0-.35-.18-.9-.42-1,0,0-.11,0-.27.19a2.44,2.44,0,0,0-.64,1.15.78.78,0,0,1-.27.94.42.42,0,0,1-.22,0,2.23,2.23,0,0,1-.57-.12l-.19,0a.31.31,0,0,0-.17,0,.31.31,0,0,1-.29,0c-.15-.1-.06-.28,0-.4l0-.09h0a.59.59,0,0,1-.57.1A1.39,1.39,0,0,1,191.17,153.13Z"/><ellipse class="cls-22" cx="194.51" cy="153.92" rx="1.18" ry="0.81" transform="translate(-21.59 275.67) rotate(-67.75)"/><ellipse class="cls-26" cx="194.51" cy="153.92" rx="0.69" ry="0.47" transform="translate(-21.59 275.67) rotate(-67.75)"/><text class="cls-27" transform="translate(206.01 167.97) scale(0.81 1)">?</text></g></g></svg>